<svg width="24" height="24" fill="none" xmlns="http://www.w3.org/2000/svg"><g clip-path="url(#a)" fill="#292929"><path d="M10.819 16.905c-1.861-.194-3.539-.652-4.975-1.776-.178-.14-.362-.274-.525-.43-.628-.604-.692-1.296-.194-2.008.425-.61 1.14-.773 1.882-.423.144.068.28.153.412.244 2.677 1.839 6.354 1.89 9.04.082.267-.204.552-.37.881-.455.642-.165 1.24.07 1.584.632.393.64.388 1.266-.097 1.763-.743.763-1.636 1.315-2.63 1.7-.938.364-1.966.547-2.984.669.154.167.226.249.322.345 1.382 1.389 2.77 2.772 4.147 4.165.47.474.568 1.062.31 1.614-.283.604-.916 1-1.536.958-.393-.027-.699-.223-.971-.497-1.043-1.05-2.106-2.08-3.127-3.149-.298-.31-.44-.252-.703.018a209.391 209.391 0 0 1-3.188 3.201c-.482.475-1.055.56-1.613.29-.594-.288-.972-.895-.943-1.503.02-.412.223-.727.506-1.01 1.367-1.365 2.731-2.734 4.096-4.102.09-.091.174-.188.306-.328Z"/><path d="M11.952 12.148c-3.32-.011-6.04-2.763-6.021-6.088C5.95 2.7 8.673-.01 12.025 0c3.359.009 6.054 2.757 6.038 6.153-.017 3.317-2.758 6.006-6.11 5.995Zm3.017-6.08A2.958 2.958 0 0 0 12 3.102a2.963 2.963 0 0 0-2.975 3.002 2.958 2.958 0 0 0 2.99 2.943 2.952 2.952 0 0 0 2.953-2.979Z"/></g><defs><clipPath id="a"><path fill="#fff" d="M0 0h24v24H0z"/></clipPath></defs></svg>