<svg width="24" height="14" fill="none" xmlns="http://www.w3.org/2000/svg"><path d="M19.915 8.028c-.388-.49-.277-.708 0-1.146.005-.005 3.208-4.431 3.538-5.932l.002-.001c.164-.547 0-.95-.793-.95h-2.624c-.668 0-.976.346-1.141.732 0 0-1.336 3.198-3.226 5.27-.61.6-.892.792-1.225.792-.164 0-.419-.192-.419-.74V.95c0-.656-.187-.95-.74-.95H9.161c-.419 0-.668.307-.668.592 0 .622.945.765 1.043 2.515v3.797c0 .832-.151.985-.486.985-.892 0-3.057-3.211-4.34-6.886C4.451.289 4.198 0 3.525 0H.9C.151 0 0 .346 0 .73c0 .683.892 4.074 4.148 8.554C6.318 12.343 9.374 14 12.154 14c1.671 0 1.875-.368 1.875-1.001 0-2.922-.151-3.198.686-3.198.388 0 1.056.192 2.616 1.667C19.114 13.217 19.407 14 20.405 14h2.624c.748 0 1.127-.368.909-1.094-.499-1.527-3.871-4.668-4.023-4.878Z" fill="#292929"/></svg>