<svg width="340" height="555" fill="none" xmlns="http://www.w3.org/2000/svg"><path fill-rule="evenodd" clip-rule="evenodd" d="M313.117 508.841c-54.458 8.306-109.903 8.724-164.814 5.708-21.731-1.634-43.529-1.929-65.243.16-12.831.958-69.088 5.277-73.684-6.264 2.893-61.451 8.752-123.425 26.726-182.526 7.391-20.985 13.74-38.403 28.167-55.769 4.547-4.741 14.353-14.685 19.971-17.928 4.868-2.809 6.903-1.807 9.698-6.552 2.777-5.242 4.826-13.997 8.77-17.695 4.015-3.767 9.966-2.419 17.342-1.206-1.355-18.389 7.097-23.072 18.742-26.569 20.469-7.845 40.684-3.904 45.836 21.118 9.552 0 14.918 4.128 20.719 8.094 2.371 1.622.721 5.753 3.554 7.027 5.24 1.874 14.501 1.415 19.546 3.721 22.944 10.485 43.38 25.691 56.801 47.898 30.087 47.412 50.755 147.286 47.179 203.48 1.567 2.468-.6 6.006-1.151 8.66-.695 2.308-2.947 3.843-5.296 3.581-3.279 3.54-8.35 4.329-12.863 5.062Z" fill="#F9F9FE"/><path fill-rule="evenodd" clip-rule="evenodd" d="M87.706 250.832c.334-.187.04-.667-.296-.508-16.15 7.608-28.54 20.956-37.258 36.379-9.027 15.97-14.172 34.102-18.608 51.824l-.16.64c-4.73 18.958-8.751 38.112-12.372 57.313-3.667 19.444-6.61 39.008-8.978 58.654-1.17 9.713-2.215 19.444-3.03 29.194a957.185 957.185 0 0 0-1.108 14.627 449.309 449.309 0 0 0-.365 5.854l-.077 1.465c-.067 1.329-.224 2.661.103 3.971.282 1.13.878 2.153 1.402 3.19 1.036 2.051 3.877 1.713 4.994 0l.324-.498c.74-1.15 1.356-2.218 1.588-3.648.225-1.385.233-2.837.334-4.236.185-2.573.344-5.15.524-7.725.378-5.419.802-10.836 1.273-16.248.93-10.685 1.927-21.361 3.152-32.016 2.177-18.937 4.908-37.824 8.128-56.611 3.147-18.352 7.124-36.517 11.274-54.66l.43-1.877c7.264-31.677 18.462-68.156 48.726-85.084ZM259.73 374.87c-.118-.317-.629-.39-.716 0-1.088 4.919-1.195 9.985-1.362 15.021-.163 4.968-.157 9.958-.085 14.929.266 18.269.766 36.522 1.198 54.787.215 9.137.418 18.275.574 27.413.058 3.427.108 6.854.149 10.281l.05 4.521c.025 1.998.077 3.972.32 5.969.16 1.313.501 2.565 1.223 3.691.512.799 1.243 1.204 1.954 1.747l.133.104c.908.72 1.865.725 2.764 0l.261-.207c.859-.675 1.601-1.202 2.149-2.269.763-1.483.885-3.094 1.015-4.728.197-2.478.066-4.992.041-7.478-.051-4.985-.12-9.97-.207-14.955-.32-18.28-.952-36.564-2.103-54.811-.543-8.595-1.279-17.218-2.266-25.779l-.188-1.604c-.299-2.519-.572-5.082-.879-7.654 4.592-3.244 8.628-7.179 12.071-11.644.253-.329-.164-.79-.47-.471-3.517 3.657-7.55 6.572-12.015 8.865-.732-5.384-1.737-10.738-3.611-15.728Zm-76.72-162.952c-.063-.049-.161-.07-.221 0-.987 1.156-.787 2.923-.819 4.387l-.004.136a176.081 176.081 0 0 0-.077 6.418l.022 6.82c.003.937.079 1.913.031 2.856l-.025.365a2.255 2.255 0 0 0-.583 2.078c.031.993.548 1.822 1.302 2.342l-1.616 2.303-1.618 2.301c-3.334 4.749-6.705 9.456-10.218 14.074a192.458 192.458 0 0 1-11.403 13.597 228.467 228.467 0 0 1-5.974 6.28c-.827.834-1.673 1.648-2.511 2.47l-.833.827c-.492.494-1.112.983-1.439 1.61-.192.369-.236 1.28-.304 1.431-.617 1.362.435 3.533 2.184 2.853l-.079-.053c-.319-.222-.114-.225.612-.009a2.76 2.76 0 0 0 1.291-.317l.119-.066c.566-.289 1.071-.848 1.53-1.294l.114-.109c1.051-.989 2.053-2.038 3.06-3.071a176.358 176.358 0 0 0 6.146-6.62 207.605 207.605 0 0 0 11.293-14.046c3.629-4.93 7.002-10.113 9.903-15.508 1.1-2.048 2.11-4.135 3.077-6.247 1.883-.607 2.321-2.618 2.189-4.884.695-1.625 1.321-3.283 1.691-4.978.051-.232-.246-.451-.424-.248a27.44 27.44 0 0 0-1.696 2.17c-.324-1.589-.733-3.051-.926-3.983l-.835-4.114c4.705-.246 9.861 1.695 13.104 5.093.174.885.852 1.518 1.514 2.345a14.371 14.371 0 0 1 1.905 3.117c1.09 2.459.475 6.084 2.591 7.888.22.188.466.319.721.4-1.004 4.942-.549 10.389-.527 15.403l.001.441c-.005 5.612.182 11.229.398 16.836l.219 5.55c.285 7.402.47 14.807-.246 22.167a165.14 165.14 0 0 0-10.15-8.328 161.856 161.856 0 0 0-7.034-5.03l-1.941-1.303c-2.325-1.566-4.707-3.177-7.254-4.299-3.33-1.466-6.498-.962-9.713.542-3.202 1.498-6.309 3.238-9.45 4.862-3.194 1.651-6.396 3.288-9.595 4.929-2.119 1.088-5.225 2.069-6.779 4.071a17.581 17.581 0 0 0-.35-1.324 2.928 2.928 0 0 0-.28-2.087c-5.223-9.638-10.055-19.505-14.854-29.36-2.429-4.988-4.738-10.034-7.172-15.019l-2.365-4.855c-.396-.808-.792-1.617-1.191-2.424-.597-1.208-1.218-2.404-1.822-3.609-.255-.509-.575-1.015-.823-1.529l-.118-.258c-.005-.013-.578-1.823-.136-1.65l.039.018c.225.128.406-.157.26-.339-.626-.777-1.498-.089-1.855.631-.985 1.98.819 5.088 1.513 6.985l.038.106c2.153 6.119 4.59 12.124 7.088 18.107 4.789 11.473 9.934 22.769 15.067 34.085l.061.194c-1.095-.842-2.263-1.607-3.264-2.351-2.525-1.879-5.124-3.664-7.718-5.444-4.758-3.264-9.645-6.313-14.612-9.242l-.995-.584c-2.481-1.452-4.939-2.629-7.885-2.193-2.736.405-5.28 1.881-7.752 3.08l-.256.123-7.638 3.647c.816-3.27 1.7-6.524 2.623-9.766a355.525 355.525 0 0 1 5.925-18.809 368.036 368.036 0 0 1 6.465-17.246l.691-1.71c.934-2.346 1.864-4.904 4.535-5.626 2.67-.722 5.733.348 8.173-1.18.222-.139.194-.506-.075-.574l-1.505-.381c-2.828-.706-6.142-1.416-8.815-.73-2.909.749-5.316 3.201-6.728 5.749-1.569 2.836-2.675 6.009-3.866 9.032l-.189.476a348.978 348.978 0 0 0-3.94 10.328 349.024 349.024 0 0 0-6.877 21 413.552 413.552 0 0 0-2.857 10.263c-.262.987-.694 2.184-1.048 3.432-.406.398-.79.841-1.15 1.347-.599.84-.17 1.825.574 2.327.029.859.219 1.667.673 2.36 1.774 2.703 6.463 2.007 6.272-1.628-.028-.556-.244-1.087-.571-1.536l.009-.073.037-.133c.814-.392 1.632-.828 2.493-1.256l8.017-3.978c2.322-1.152 4.895-2.932 7.477-3.371 2.407-.41 4.947 1.391 7.015 2.478l.134.069c5 2.574 9.963 5.233 14.907 7.914 2.413 1.308 4.794 2.672 7.198 3.996 2.01 1.108 4.18 2.698 6.439 3.323.965.753 2.111.652 3.032.082-.421 2.619-.395 5.306-.524 7.983-.174 3.578-.2 7.167-.258 10.75l-.023 1.344c-.152 7.922-.233 15.847-.263 23.77-.107 28.217.204 56.442.276 84.658.037 14.177.317 28.366.684 42.537.155 6.005.48 12.003.831 17.999l.194 3.27c.408 6.901.65 13.877 1.922 20.685.166.888 1.662.91 1.809 0 1.171-7.295 1.236-14.749 1.461-22.129l.048-1.475c.27-7.924.399-15.843.371-23.771-.1-28.228-.831-56.438-1.428-84.657-.301-14.179-.503-28.364-.97-42.538-.233-7.092-.498-14.179-.811-21.269-.14-3.165-.275-6.327-.484-9.488l-.095-1.354c-.065-.884-.117-1.756-.181-2.621 2.844 1.043 5.445-.889 8.004-2.21 2.948-1.523 5.896-3.049 8.846-4.569l2.952-1.518 5.909-3.027c2.66-1.364 4.709-2.72 7.547-1.121 10.222 5.759 19.615 13.421 28.128 21.462 1.632 1.542 5.082 1.128 5.495-1.457 1.767-11.04.692-22.241-.209-33.315l-.333-4.111c-.403-4.911-.841-9.821-1.426-14.712-.261-2.187-.522-4.374-.81-6.557l-.222-1.637c-.36-2.589-.595-5.161-1.363-7.644.242-.078.475-.207.684-.406 2.308-2.199 1.195-6.015.142-8.631-1.04-2.583-2.626-4.836-4.612-6.776a2.504 2.504 0 0 0-1.658-.71c-4.815-3.204-10.098-4.803-15.597-3.054-.154-.742-.312-1.482-.478-2.221l-.168-.738c-.428-1.832-.587-4.858-2.161-6.084Zm-49.356 289.338a4.366 4.366 0 0 0-4.226 1.122 4.41 4.41 0 0 0-1.116 4.243 4.355 4.355 0 0 0 2.877 2.999l.156.047.244.102a4.245 4.245 0 0 0 2.248 0 4.234 4.234 0 0 0 2.952-2.965 4.3 4.3 0 0 0 0-2.257l-.102-.245a4.355 4.355 0 0 0-3.033-3.046ZM44.922 351.719c-.246-.283-.644.08-.491.381 2.327 4.582 4.922 9.132 7.472 13.598-.205 1.237-.407 2.465-.64 3.662-.994 5.101-2.21 10.11-3.004 15.259-2.85 18.51-4.331 37.22-5.601 55.896-1.274 18.743-1.437 37.494-1.628 56.274-.017 1.628 1.23 3.519 2.9 3.826.765.14 1.338.113 2.1 0 1.74-.257 2.827-2.257 2.902-3.826.498-10.496 1.169-20.978 1.946-31.457 1.377-18.579 2.219-37.207 3.331-55.805l.392-6.5c.42-7.043.805-14.091.93-21.145.084-4.673-.165-9.345-.012-14.012.141-4.31.577-8.995-.37-13.229-.035-.159-.284-.199-.357-.047-.983 2.079-1.607 4.34-2.087 6.647-2.535-3.22-5.117-6.447-7.783-9.522Zm166.067-113.835c-.356-.025-.342.512 0 .551 4.975.58 9.782 2.613 14.48 4.341l.402.148c4.746 1.729 9.373 3.74 13.827 6.137 8.706 4.686 16.701 10.729 23.77 17.647 28.222 27.615 41.083 67.437 50.508 104.86 5.236 20.792 8.96 41.935 11.373 63.241a478.906 478.906 0 0 1 3.006 48.005c.034 2.783.044 5.568.041 8.351-.002 1.276-.229 2.882.111 4.121.315 1.147 1.204 2.158 1.861 3.114.779 1.134 2.18 1.074 2.97 0l.291-.391c.842-1.122 1.667-2.195 1.787-3.662.129-1.572.038-3.193.044-4.772.013-3.182-.026-6.364-.09-9.545a476.433 476.433 0 0 0-.717-18.28 466.529 466.529 0 0 0-3.611-36.942c-3.025-21.788-7.559-43.367-13.497-64.541-5.602-19.975-12.239-39.891-21.694-58.393-8.778-17.179-20.295-33.161-35.491-45.167-7.067-5.583-14.76-10.236-23.053-13.74-4.183-1.767-8.576-3.21-13.043-4.033-4.418-.813-8.817-.699-13.275-1.05Zm-78.192 228.065c-.789-.005-1.669.169-2.345.607l-.905.702c-.245.316-.489.633-.732.951-.566.741-.641 1.938-.523 2.82a3.3 3.3 0 0 0 .523 1.644l.689.896c.662.542 1.213.929 2.015 1.189.419.136.823.165 1.225.144l.134-.008-.081.01.141-.016c.131-.011.263-.025.394-.043.09-.011.18-.018.27-.031.086-.007.169-.01.256-.002 1.019.096 2.043-.484 2.766-1.15.652-.601 1.237-1.875 1.146-2.778l-.039-.377c-.068-.637-.125-.887-.393-1.527a4.678 4.678 0 0 0-1.122-1.634c-.951-.888-2.114-1.387-3.419-1.397Zm3.154-46.582c-1.352-1.479-3.674-1.588-5.351-.693-.409.218-.784.569-1.144.861-.908.736-1.264 2.066-1.314 3.185-.05 1.107.532 2.422 1.314 3.187l.189.184c.468.456 1.137.853 1.791.974 1.054.194 1.939.189 2.921-.227.844-.358 1.57-.932 2.065-1.712l.08-.132c.034-.054.066-.11.096-.167l.044-.086c.939-1.814.687-3.868-.691-5.374Zm-.7-46.827a3.451 3.451 0 0 0-1.829-.082c-.414.001-.8.106-1.158.314a2.276 2.276 0 0 0-1.012.592c-.344.205-.619.48-.823.826a3.469 3.469 0 0 0-.821 1.567l-.164 1.224.164 1.225.463 1.1c.127.167.255.333.384.499.204.347.479.624.825.829.225.224.482.392.77.509a4.288 4.288 0 0 0 3.592.64 4.235 4.235 0 0 0 1.872-1.095 4.267 4.267 0 0 0 1.09-1.88l.083-.576c.107-.773.124-1.201-.094-2.183-.096-.432-.373-1.041-.518-1.297-.62-1.095-1.633-1.846-2.824-2.212Zm-52.953-33.689a287.442 287.442 0 0 0-5.252.01l-1.314.018c-2.198.034-4.082-.193-5.81 1.339-1.255 1.112-.702 2.977.489 3.814 1.804 1.269 4.068.631 6.142.491 2.187-.147 4.377-.27 6.567-.368 4.24-.191 8.482-.312 12.727-.331a619.15 619.15 0 0 1 12.712.091c4.31.07 8.796.473 13.082.025.588-.061.721-.839.14-1.041-4.038-1.402-8.581-1.857-12.812-2.393-4.365-.554-8.73-.946-13.122-1.2-4.511-.26-9.03-.424-13.548-.455Zm52.961-13.778-.145.003a4.518 4.518 0 0 0-2.164.546l-.144.081-.925.717a4.595 4.595 0 0 0-1.176 2.027l-.163 1.22a3.47 3.47 0 0 0 .393 1.769c.185.569.5 1.062.946 1.478.414.447.905.764 1.471.949a3.42 3.42 0 0 0 1.618.398l.144-.002a4.54 4.54 0 0 0 2.307-.627l.926-.718a4.591 4.591 0 0 0 1.176-2.026l.163-1.221a3.46 3.46 0 0 0-.394-1.769 3.44 3.44 0 0 0-.945-1.478 3.424 3.424 0 0 0-1.472-.949 3.415 3.415 0 0 0-1.616-.398Zm-13.555-107.858c-.985-1.433-2.771-.159-2.515.993-.068 3.235-.232 6.375-.966 9.544-.335 1.451-.775 2.904-1.453 4.233l-.285.559c-.878 1.742-1.559 3.384-.377 5.295.557.901 1.564 1.577 2.656 1.53 4.842-.21 5.507-6.977 5.801-10.755.304-3.891-.64-8.167-2.861-11.399Z" fill="#292929"/><path fill-rule="evenodd" clip-rule="evenodd" d="M149.658 42.22c-18.662 0-41.054 9.086-42.958 9.268l-.051.002c-1.002 0-4.915 2.995-11.741 8.983l7.393 14.481-.598.574c-2.864 2.756-5.308 5.269-7.237 7.25-15.753 16.171-18.584 79.667-14.872 101.81 3.713 22.144 10.589 43.811 42.601 43.811 32.013 0 67.628-19.329 73.114-25.349 3.657-4.013 7.766-5.935 12.325-5.767l.558-.711.67-.095c6.31-.918 10.831-2.153 13.563-3.705 5.337-3.032 11.203-18.972 11.203-22.483 0-3.476 8.759-28.764 8.934-31.44l.003-.075c0-2.237 11.443-12.52 11.443-15.786s2.306-3.068 0-14.577l-.67-3.381c-2.455-12.253-7.259-32.543-25.576-41.359-20.128-9.688-59.252-21.45-78.104-21.45Z" fill="#F9F9FE"/><path fill-rule="evenodd" clip-rule="evenodd" d="M230.867 63.215c-10.038-10.7-67.029-27.25-95.863-23.742l-.865.113a50.793 50.793 0 0 0-6.806 1.34c-7.234 1.696-14.706 4.265-20.683 8.556-4.99 3.51-20.732 9.243-16.092 18.426-1.72 3.273-2.362 7.316-1.2 10.54.146 1.113.488 2.139.926 3.202-3.676 5.446-6.586 11.605-8.941 17.464-4.117 14.743-6.678 30.086-7.053 45.128-1.248 28.578 1.872 62.714 26.658 81.194 14.974 11.711 38.428 12.104 55.255-2.415.955-1.135 5.446-4.197 3.947-4.735a43.71 43.71 0 0 1-1.371 1.386c.021-.05.025-.1.016-.155l.439-.399c.827-.768 1.898-1.883.678-1.665-.053.063-.112.118-.17.18a6.017 6.017 0 0 0-.606.41l-.078.063.024-.025c.703-.753 1.125-1.521.074-1.03l-.139.068c-.468.494-.942.967-1.426 1.427a.268.268 0 0 0-.03-.167l.451-.438c.44-.433.373-.435.158-.785.935-1.316-.811-.534-.933-.021-1.093-.259-2.052 1.8-2.756 2.051-30.845 23.814-75.608 2.684-74.883-63.673l.01-1.298c.212-21.219 1.99-43.027 10.73-62.234.85-1.85 1.8-3.65 2.847-5.392a52.234 52.234 0 0 1 2.322-3.817 34.265 34.265 0 0 0 6.873-1.277 32.81 32.81 0 0 0 2.31-.67c11.204.614 22.159 1.282 33.395 1.915l3.51.22c9.518.614 19.361 1.598 27.042 7.51 7.537 5.382 7.571 15.995 14.022 21.905 9.2 6.27 9.267 11.924 11.039 21.164-.132 6.965-4.941 17.085 3.885 20.017-1.489 2.131.586 1.107.749.36.017.004.034.008.046.008-1.326 2.477.624.917.796.121a.748.748 0 0 0 .313-.209c-1.337 2.17.824.651.696.255 2.583-3.987 7.9-4.606 11.647-3.549.046.142.212.155.317.079 15.934 3.468 11.823 36.593-4.507 33.391-.699-.143-.682.194-.821.226.378-.994-.686-.59-.675-.381l-.064-.003c-.052-.004-.031-.01-.069.003.365-2.034-1.688.913-1.526 1.034a.544.544 0 0 0-.196-.067l.071-.193c.34-.911.311-.532.309-1.054.256-.645.275-.363.214-.783-.899-.7-1.165 1.423-1.465 1.578.515-.72.106-1.308-.379-.917-3.678 7.768-8.429 15.067-14.569 20.817a43.976 43.976 0 0 1-2.055 1.549c-2.611 2.284-6.617 3.753-9.062 5.776 0 .034.017.076.042.118l-.056.05-.057.054-.85.41c-.25.214-.475.453-.675.716-.213.247-.4.519-.559.808-.079.352.096.498.429.348.147-.051.292-.109.438-.164-.008.013-.012.021-.021.03-.048.072-.372.826.002.703l.044-.017c.205-.075.408-.159.609-.238-.238.297-.454.619-.646.891a1.423 1.423 0 0 0-.38.749c.009.159.096.226.254.206.242-.08.48-.164.718-.252l-.068.13c-.168.332-.407.889.017.703.363-.113.713-.242 1.063-.385.03.059.088.08.204.025a21.365 21.365 0 0 0 3.218-1.456c.905-.662 1.818-1.311 2.727-1.968a20.855 20.855 0 0 0 2.467-1.733 53.842 53.842 0 0 0 13.548-12.599c6.123 5.325 18.365.237 25.937-3.931 6.699-3.725 9.331-10.614 10.012-18.04 1.415-9.999 9.552-13.421 8.986-35.359.012.004.025.004.042.004.296-.088.583-.205.854-.356.279-.134.542-.293.788-.486l.305-.422c.158-.088.299-.18.408-.273l.056.073c.178.216.058-.109.048-.173l.528-.722c1.254-1.718 2.629-3.647 3.749-5.189l.035.063c.026.047.039.082.027.097 2.666-3.846 5.173-8.492 5.869-12.989.823-3.465.501-7.034-.216-10.243-3.076-11.237-13.152-36.666-26.382-47.565Zm-72.341 155.403.167-.149-.147.185a1.273 1.273 0 0 1-.284.269.235.235 0 0 0 .004-.092c.085-.066.172-.137.26-.213ZM135.132 45.12c19.553-1.689 38.785 2.637 57.443 7.873l1.287.372c10.61 3.04 21.828 5.775 30.794 12.282 12.526 9.635 18.995 24.962 24.64 39.113 4.929 10.515 2.409 22.37-5.019 29.712-.773-7.296-2.091-14.378-4.15-21.403-.43-1.098-.104-1.457-1.031-1.6-1.398 18.932 5.491 32.919-8.143 55.357-5.917 10.587.932 18.333-15.775 23.904l-.452.174c-3.481 1.319-7.282 2.36-10.691 1.622l.306-.498c.311-.514.406-.764-.047-.983.012-.026.028-.051.046-.08.366-.695.72-1.398 1.058-2.11.137.046.275.08.417.118-.092.171-.104.343.154.401a7.213 7.213 0 0 0 2.827.384l.208-.015c1.09-.067 1.778-.267 2.393-.452.203-.034.408-.067.608-.109 1.978-.44 4.072-1.561 5.427-2.671 15.447-8.81 13.851-38.802-5.19-41.637-.39-18.883-9.334-50.742-24.178-68.736-13.417-16.551-50.047-23.725-75.53-21.195-.372.123-.743.248-1.115.374-3.931.35-7.678 2.11-11.613 2.927 2.825-2.126 6.03-3.542 9.331-4.746 6.577-4.04 14.116-6.226 21.401-7.767a20.984 20.984 0 0 1 4.594-.611Zm77.982 114.924c-1.024-.559-.907-.02-1.142-.176-7.364-.603-15.305 5.871-19.421 11.268.325.339 1.205-.665 1.359-.824a.197.197 0 0 0 .071.046l-.115.162c-1.668 2.404 1.639-.425 1.949-1.008.054.03.108.046.171.034-.262.258-1.063.932-1.201 1.41l-.212.178c-2.002 1.721-1.836 3.016.437.572-.054.113-.074.217-.037.301l-.078.052c-1.118.785-2.037 2.971.299.727-.243 1.639 2.315-1.529 2.397-1.507 4.426-3.489 10.942-6.882 16.494-7.338l.191-.022c1.019-.132 1.501-.435 1.143-1.104 1.255-.3.961-.92.367-.9.885-.585.088-1.143-.425-.925.353-.982-1.063-.328-1.193-.465-.734-1.138-.932-.189-1.054-.481Zm15.435-60.843c-3.536-1.3-13.984 2.594-13.148 7.752.498 1.184 2.138 1.863 3.29 1.194l1.504-1.014c2.618-1.761 4.979-3.305 7.79-4.84 1.53-.762 2.188-2.38.564-3.092Zm-20.122-7.664 1.365-.893c7.372-4.845 17.792-12.185-.688-4.59-2.106.907-4.905 1.443-6.054 3.457-1.806 3.713 2.946 3.962 5.377 2.026Zm-.829-21.737c.592-2.254-6.768.39-8.911 1.088l-.326.124c-2.085.78-4.474 1.503-5.72 3.31-1.461 2.495 1.495 3.012 3.327 1.885 3.754-2.464 7.87-4.323 11.63-6.407Zm-18.716-10.5c4.143-4.544-6.945-.192-8.605 1.016l-.048.036c-1.239.876-.988 2.763.177 3.317 3.312.064 5.75-2.71 8.476-4.37Zm-18.852-4.978c6.586-4.753-2.09-2.493-5.103-.63-2.054 1.819.062 4.89 5.103.63Z" fill="#292929"/><path fill-rule="evenodd" clip-rule="evenodd" d="M146.512 173.562c-7.145-.871-14.072 1.326-21.057 2.433-3.688.585-7.381 1.021-11.113 1.183-.751.033-1.502.052-2.253.068-.07-.664-.44-1.274-1.242-1.639-1.644-.749-2.96-1.086-4.765-1.014-1.652.066-3.31.236-4.936.535-2.954.544-5.922 1.778-8.083 3.922-5 4.962-4.24 12.932-.375 18.336 7.983 11.167 22.554 11.685 35.033 11.539l1.152-.015c11.362-.163 27.619 1.539 32.781-11.444 1.899-4.774 1.635-10.307-.689-14.886-2.772-5.461-8.608-8.306-14.453-9.018Zm-35.493 18.593.102.004a748.98 748.98 0 0 0 15.718.439 212.408 212.408 0 0 1-.5 4.053 201.06 201.06 0 0 1-.457 3.18c-.068.449-.317 1.145-.247 1.589l.026.175a1.61 1.61 0 0 0-.695.605c-.063.099-.109.199-.155.298-4.07.032-8.449-.047-12.598-.79l-.008-.09c-.075-.533-.296-.891-.588-1.137-.292-1.697-.265-3.505-.378-5.189-.07-1.046-.147-2.091-.22-3.137Zm19.824.514c3.776.065 7.553.115 11.329.068l1.713-.026c-.362 1.95-.755 3.893-1.083 5.856-.341 2.045 1.452 3.346 3.004 3.293-.175.029-.348.059-.523.083-4.848.689-9.883.506-14.803.501.264-1.552.157-3.303.197-4.598l.007-.2c.075-1.66.128-3.318.159-4.977Zm25.648-.357a11.603 11.603 0 0 1-.767 2.93c-1.612 3.903-5.307 5.724-9.217 6.491.678-.235 1.217-.8 1.353-1.768.339-2.407.461-4.854.47-7.298 2.725-.026 5.468-.084 8.161-.355Zm-59.682-.834c1.94.46 4.194.249 6.098.336 1.783.081 3.567.152 5.35.225-.084 1.222-.166 2.444-.255 3.666-.115 1.579-.126 3.248-.427 4.82-3.589-1.23-6.804-3.202-9.217-6.356a12.236 12.236 0 0 1-1.55-2.691Zm50.523-11.512c3.229.768 6.286 2.39 7.928 5.357.975 1.761 1.404 3.848 1.322 5.905-2.73-.319-5.506-.44-8.269-.54-.009-.5-.021-.999-.036-1.497l-.043-1.276c-.075-2.435-.113-5.493-.902-7.949Zm-16.715.297 1.421-.16c3.949-.452 7.896-.926 11.844-.655.572.04 1.152.103 1.734.188-.698 2.529-.64 5.5-.931 8.003a61.043 61.043 0 0 1-.413 2.885l-.685-.032c-4.237-.231-8.478-.373-12.719-.541 0-.8-.004-1.6-.017-2.4l-.015-.801c-.049-2.044.083-4.347-.219-6.487Zm-19.829-.325c4.136.671 8.41.813 12.472.818 1.623.002 3.245-.098 4.866-.242-.106.867-.161 1.743-.24 2.598-.16 1.727-.343 3.451-.542 5.174l-.177 1.508c-5.213-.238-10.424-.494-15.635-.76l-.736-.039-.206-2.897c-.14-1.932-.295-3.864-.512-5.787l.163-.059a2.65 2.65 0 0 0 .547-.314Zm-1.796.719c-.228 2.732-.354 5.475-.522 8.211l-3.435-.185c-.572-.031-1.145-.063-1.717-.096-2.227-.129-5.087-.806-7.288-.174-.168-2.009.404-3.967 2.21-5.316 3.17-2.371 7.206-1.527 10.752-2.44Zm11.737-24.417c-5.116-2.942-17.951-5.949-18.763 3.296-.374 4.254 2.775 7.779 6.453 9.351l.138.059c3.449 1.424 9.563 3.032 12.548-.056 2.485-2.57-.811-7.179-3.898-5.073-1.586 1.082-4.926.285-6.696-.23l-.111-.033c-1.91-.563-4.457-2.368-3.667-4.73.699-2.09 3.674-2.471 5.536-2.539 2.781-.1 5.487.548 8.243.759.436.034.571-.601.217-.804Zm-21.19-14.866c-6.943-.326-11.262 7.286-9.665 13.524.276 1.076 1.474 2.132 2.632 2.011l.291-.026c.148-.015.297-.034.434-.071 1.099-.306 2.084-1.454 2.004-2.643l-.022-.347c-.162-2.947.156-6.341 3.643-7.055 2.958-.605 4.609 2.253 4.644 4.885.007.467.529.793.941.542 2.138-1.307 2.508-3.906 1.691-6.144-1.035-2.836-3.625-4.536-6.593-4.676Zm51.522 1.633c-5.052-1.693-10.503 1.012-12.95 5.497-.858.25-1.715.914-1.596 1.931.172 1.464.432 2.386 1.442 3.496 1.581 1.736 4.541.848 5.197-1.289l.028-.096c.746-2.762 3.774-4.585 6.533-3.618 3.222 1.129 3.128 4.547 5.388 6.538.266.234.584.271.903.116 2.4-1.165 1.969-4.671 1.113-6.677-1.122-2.634-3.304-4.976-6.058-5.898Zm6.881-15.407c-4.094-4.195-14.77-8.255-17.571-.508-.533 1.476.603 3.465 2.132 3.771 2.506.501 4.728-.591 7.217-.395 2.014.159 4.116.835 5.726 2.088 4.461 3.471 5.443 9.342 8.551 13.76.151.215.445.125.473-.129.708-6.432-2.043-13.993-6.528-18.587Zm-53.395-4.13c-2.717-.964-5.793-.881-8.525-.026-2.75.861-5.276 2.497-7.222 4.634-.883.971-1.7 2.041-2.355 3.181-.348.604-.714 1.852-1.11 2.595-2.14 1.241-3.055 4.068-1.139 6.08l.087.088.256.256c1.03 1.024 2.583 1.467 3.99 1.058 3.145-.914 3.528-3.402 4.617-6.044.72-1.744 1.952-3.288 3.446-4.422 3.532-2.679 9.323-3.533 13.575-2.27.227.067.493-.222.331-.433-.805-1.048-1.27-1.908-2.348-2.753-1.095-.859-2.291-1.479-3.603-1.944Z" fill="#292929"/><path fill-rule="evenodd" clip-rule="evenodd" d="M151.358 198.977c-3.374-7.94-10.74-13.775-19.221-15.908-6.227-1.563-12.763-1.513-19.111-.893-3.327.323-6.894.587-10.029 1.828-2.677 1.059-4.858 3.062-6.498 5.414-1.952 2.786-3.28 5.975-4.213 9.243-.132.465-.257.933-.373 1.404.406 2.466 1.267 4.565 3.541 6.115 2.22 1.514 4.868 2.133 7.508 2.353.259-.124.509-.253.739-.384 4.114-2.365 7.01-7.954 12.202-7.198 4.634.675 7.685 6.531 10.441 9.964 8.846 1.035 17.685-1.634 24.883-6.714.365-1.738.387-3.491.131-5.224Zm-65.457-6.023a34.306 34.306 0 0 1 2.655-5.745c3.493-6.017 8.855-10.811 15.22-13.552 15.057-6.474 34.539-1.91 46.699 8.708 4.153 3.63 8.353 8.964 9.623 14.701.38.075.738.274 1.032.553 8.786-5.555 17.833-10.899 24.912-18.598 5.141-5.594 8.717-12.215 10.907-19.49.179-.598 1.14-.511 1.111.152l-.025.464c.092-.284.525-.138.558.139 1.178 8.837 2.652 18.207 1.295 27.091-.812 5.3-3.21 9.181-6.415 13.372-3.435 4.491-7.323 8.669-11.298 12.675-2.523 2.544-5.158 5.477-8.247 7.342-3.592 2.166-7.668 3.813-11.502 5.485-3.9 1.705-7.859 3.281-11.893 4.647-8.064 2.74-16.398 4.634-24.877 5.464-6.79.662-14.55 1.383-21.056-1.182-4.987-1.965-9.013-5.518-12.206-9.792-3.476-4.656-6.224-9.959-7.743-15.551-1.578-5.809.917-15.946 1.25-16.883Z" fill="#292929"/><path fill-rule="evenodd" clip-rule="evenodd" d="M69.92 145.017c3.974 26.994 31.716 29.979 36.646 3.18-.792-.347-1.361-1.032-1.242-2.362.028-5.84-1.777-12.012-7.024-15.26-5.421-3.351-11.766-3.684-18.04-3.599-11.972-.287-11.72 9.762-10.34 18.041Zm40.989-11.741c3.757-.159 8.511-.026 11.877 2.273.925-2.502 3.329-5.174 5.759-6.603-9.03.266-18.325-.627-27.422-1.319 2.178 1.49 4.204 3.73 5.52 6.319 1.222-.655 2.972-.593 4.266-.67Zm16.561 14.602c10.419 36.014 36.426 20.317 39.262 15.702 5.114-7.638 6.076-26.204 1.621-31.168-6.377-4.489-15.404-3.334-22.937-3.444-13.84.188-23.669 4.345-17.946 18.91Zm-69.852-16.564c2.83-.371 5.855-.446 8.487.805.81-3.458 3.355-6.35 6.227-7.623.348-.437.296-.673 1.483-.607 7.293-2.201 15.453-1.036 22.461 1.221 11.068.936 22.68 1.674 33.841 2.963 10.455-4.715 42.007-5.406 43.968 6.215 2.466-.37 6.667-2.319 8.739.325 15.203-2.588 30.911 1.009 46.18 2.611 3.843.71 5.823 8.37 1.46 8.265-2.453-.668.075-4.769-3.227-5.078-14.732-1.616-29.141-3.908-44.024-4.176.518 2.581-9.843 2.748-9.996 1.241-.022.012-.045.019-.068.029 2.561 9.582.25 23.371-4.377 29.313-6.483 7.779-22.758 10.011-29.975 5.006-9.31-4.62-18.994-27.811-16.274-35.515-4.937-1.572-9.817-1.1-14.941-.3 1.173 3.328 3.198 11.519.284 12.229.535 16.262-14.203 26.409-27.79 19.738-11.759-5.543-15.871-23.09-14.432-33.74-1.464 2.841-13.756-.252-8.026-2.922Z" fill="#292929"/></svg>