<svg width="22" height="24" fill="none" xmlns="http://www.w3.org/2000/svg"><path d="M18.2 16.896c-.912 0-1.728.36-2.352.924l-8.556-4.98c.06-.276.108-.552.108-.84 0-.288-.048-.564-.108-.84l8.46-4.932c.648.6 1.5.972 2.448.972 1.992 0 3.6-1.608 3.6-3.6S20.192 0 18.2 0a3.595 3.595 0 0 0-3.6 3.6c0 .288.048.564.108.84l-8.46 4.932C5.6 8.772 4.748 8.4 3.8 8.4A3.595 3.595 0 0 0 .2 12c0 1.992 1.608 3.6 3.6 3.6.948 0 1.8-.372 2.448-.972l8.544 4.992c-.06.252-.096.516-.096.78a3.508 3.508 0 0 0 3.504 3.504 3.508 3.508 0 0 0 3.504-3.504 3.508 3.508 0 0 0-3.504-3.504Z" fill="#ED2BA0"/></svg>